<?xml version="1.0" standalone="no"?>
<!DOCTYPE svg PUBLIC "-//W3C//DTD SVG 20010904//EN"
 "http://www.w3.org/TR/2001/REC-SVG-20010904/DTD/svg10.dtd">
<svg version="1.0" xmlns="http://www.w3.org/2000/svg"
 width="900.000000pt" height="900.000000pt" viewBox="0 0 900.000000 900.000000"
 preserveAspectRatio="xMidYMid meet">
<metadata>
Created by potrace 1.11, written by Peter Selinger 2001-2013
</metadata>
<g transform="translate(0.000000,900.000000) scale(0.100000,-0.100000)"
fill="#000000" stroke="none">
<path d="M4320 8368 c-1156 -730 -2343 -1421 -3015 -1755 l-257 -128 6 -135
c61 -1316 60 -3213 0 -3781 l-6 -57 83 -45 c1000 -538 1185 -639 1649 -900
638 -359 1092 -631 1474 -884 203 -135 251 -162 261 -151 12 13 189 316 218
374 13 24 14 39 7 65 -36 125 -50 359 -39 648 8 194 29 468 45 579 l6 42 -240
0 c-133 0 -243 -3 -245 -7 -2 -5 4 -84 14 -178 33 -319 44 -864 17 -891 -13
-12 -562 289 -1118 613 -412 240 -1095 655 -1576 957 l-91 58 -6 66 c-20 215
-29 849 -23 1572 5 711 11 998 32 1602 l7 198 186 118 c471 300 1101 667 1926
1119 350 193 855 463 865 463 5 0 69 -34 505 -268 1097 -589 2456 -1385 2470
-1447 2 -11 9 -166 15 -345 44 -1411 38 -2680 -15 -3297 l-7 -73 243 0 242 0
-6 72 c-62 715 -62 2115 -1 3743 l7 170 -284 142 c-656 328 -1577 862 -2827
1640 -188 117 -344 213 -345 212 -1 0 -81 -50 -177 -111z"/>
<path d="M3934 5305 c-22 -87 143 -415 240 -478 91 -60 98 41 16 220 -95 204
-234 345 -256 258z"/>
<path d="M5838 5121 l-46 -26 70 -33 c39 -17 73 -30 75 -28 5 5 -39 116 -46
115 -3 -1 -27 -13 -53 -28z"/>
<path d="M3510 5069 c0 -48 195 -196 381 -289 244 -123 354 -119 224 7 -132
128 -461 303 -570 303 -29 0 -35 -4 -35 -21z"/>
<path d="M5395 4884 c-412 -224 -589 -314 -594 -306 -3 6 -6 -30 -6 -79 0 -49
2 -84 3 -79 2 6 45 -11 95 -38 51 -27 212 -113 359 -191 l267 -142 183 82
c101 45 211 94 245 109 60 28 62 29 69 77 10 61 10 311 0 384 l-7 56 -230 101
c-126 56 -232 102 -237 102 -4 0 -70 -34 -147 -76z"/>
<path d="M4263 4928 c42 -170 59 -989 24 -1161 -10 -48 -20 -94 -23 -102 -5
-13 18 -15 170 -15 l176 0 0 -25 c0 -35 -26 -39 -195 -31 -82 5 -145 4 -148
-1 -3 -5 3 -88 13 -185 41 -374 43 -815 5 -1013 -8 -44 -15 -86 -15 -93 0 -10
54 -12 255 -12 162 1 261 -3 274 -9 29 -16 44 -14 37 5 -3 9 -3 21 1 27 4 7 9
3 14 -9 7 -18 8 -17 8 3 1 13 18 46 40 74 21 28 44 70 51 92 11 37 65 160 91
210 52 99 54 106 33 122 -10 8 -98 72 -194 142 l-175 127 3 70 c2 39 7 95 10
124 l7 52 115 -83 c63 -46 170 -122 238 -170 l122 -87 6 29 c4 18 12 28 22 27
10 -1 19 10 23 29 5 21 7 24 9 10 1 -13 6 -6 12 18 6 20 14 37 20 37 5 0 6 4
3 10 -3 6 1 7 9 4 12 -5 16 1 16 21 0 20 4 26 15 21 9 -3 19 3 25 15 6 11 15
17 20 14 6 -3 15 7 22 22 7 15 28 42 46 58 l33 30 -27 255 c-15 148 -31 258
-38 262 -6 4 -165 103 -353 220 -237 147 -341 217 -338 227 5 11 3 12 -10 1
-13 -11 -15 -5 -15 46 0 101 34 531 46 592 l4 22 -246 0 -246 0 5 -22z"/>
<path d="M3823 4655 c-77 -14 -191 -48 -233 -70 -14 -7 -36 -25 -49 -39 -30
-32 -18 -51 43 -67 116 -32 457 44 515 115 52 63 -91 95 -276 61z"/>
<path d="M5847 3953 l-78 -38 59 -32 60 -33 20 48 c28 66 35 92 25 92 -5 0
-44 -17 -86 -37z"/>
<path d="M5672 3616 c4 -39 7 -77 7 -85 1 -11 81 84 81 95 0 1 -21 16 -48 32
l-48 29 8 -71z"/>
</g>
</svg>
